<svg width="16" height="14" viewBox="0 0 16 14" fill="none" xmlns="http://www.w3.org/2000/svg">
<g filter="url(#filter0_d_6103_375)">
<path d="M14.0306 6.53061L9.53063 11.0306C9.38973 11.1715 9.19863 11.2507 8.99938 11.2507C8.80012 11.2507 8.60902 11.1715 8.46813 11.0306C8.32723 10.8897 8.24807 10.6986 8.24807 10.4994C8.24807 10.3001 8.32723 10.109 8.46813 9.96811L11.6875 6.74999H2.5C2.30109 6.74999 2.11032 6.67097 1.96967 6.53032C1.82902 6.38967 1.75 6.1989 1.75 5.99999C1.75 5.80108 1.82902 5.61031 1.96967 5.46966C2.11032 5.329 2.30109 5.24999 2.5 5.24999H11.6875L8.46937 2.02999C8.32848 1.88909 8.24932 1.69799 8.24932 1.49874C8.24932 1.29948 8.32848 1.10838 8.46937 0.967487C8.61027 0.826591 8.80137 0.747437 9.00062 0.747437C9.19988 0.747437 9.39098 0.826591 9.53187 0.967487L14.0319 5.46749C14.1018 5.53726 14.1573 5.62016 14.1951 5.71142C14.2329 5.80269 14.2523 5.90052 14.2522 5.99931C14.252 6.09809 14.2324 6.19588 14.1944 6.28706C14.1564 6.37824 14.1007 6.46101 14.0306 6.53061Z" fill="#CBD5E1"/>
</g>
<defs>
<filter id="filter0_d_6103_375" x="-2.25" y="0.747437" width="20.5022" height="18.5032" filterUnits="userSpaceOnUse" color-interpolation-filters="sRGB">
<feFlood flood-opacity="0" result="BackgroundImageFix"/>
<feColorMatrix in="SourceAlpha" type="matrix" values="0 0 0 0 0 0 0 0 0 0 0 0 0 0 0 0 0 0 127 0" result="hardAlpha"/>
<feOffset dy="4"/>
<feGaussianBlur stdDeviation="2"/>
<feComposite in2="hardAlpha" operator="out"/>
<feColorMatrix type="matrix" values="0 0 0 0 0 0 0 0 0 0 0 0 0 0 0 0 0 0 0.25 0"/>
<feBlend mode="normal" in2="BackgroundImageFix" result="effect1_dropShadow_6103_375"/>
<feBlend mode="normal" in="SourceGraphic" in2="effect1_dropShadow_6103_375" result="shape"/>
</filter>
</defs>
</svg>
